<svg width="100" height="100" viewBox="0 0 100 100" fill="none" xmlns="http://www.w3.org/2000/svg">
  <!-- Body -->
  <ellipse cx="50" cy="55" rx="30" ry="25" fill="#FF9800"/>
  
  <!-- Wing -->
  <ellipse cx="35" cy="55" rx="15" ry="18" fill="#FFA726"/>
  
  <!-- Head -->
  <circle cx="70" cy="40" r="18" fill="#FF9800"/>
  
  <!-- Eye -->
  <circle cx="75" cy="38" r="4" fill="white"/>
  <circle cx="76" cy="38" r="2" fill="black"/>
  
  <!-- Beak -->
  <polygon points="85,40 92,38 85,36" fill="#FFD700"/>
  
  <!-- Comb -->
  <path d="M65 25 Q68 18 72 25 Q75 20 78 25" fill="#D32F2F"/>
  
  <!-- Wattle -->
  <ellipse cx="82" cy="46" rx="4" ry="6" fill="#D32F2F"/>
  
  <!-- Tail Feathers -->
  <path d="M20 45 Q10 40 15 50 Q8 48 12 55 Q5 55 10 60" fill="#FFA726"/>
  
  <!-- Legs -->
  <line x1="40" y1="78" x2="40" y2="95" stroke="#FFD700" stroke-width="3"/>
  <line x1="60" y1="78" x2="60" y2="95" stroke="#FFD700" stroke-width="3"/>
  <path d="M35 95 L40 95 L45 95" stroke="#FFD700" stroke-width="3" fill="none"/>
  <path d="M55 95 L60 95 L65 95" stroke="#FFD700" stroke-width="3" fill="none"/>
</svg>
