<svg width="100" height="100" viewBox="0 0 100 100" fill="none" xmlns="http://www.w3.org/2000/svg">
  <!-- Body -->
  <ellipse cx="50" cy="60" rx="35" ry="25" fill="white"/>
  
  <!-- Spots -->
  <ellipse cx="35" cy="55" rx="12" ry="10" fill="black"/>
  <ellipse cx="60" cy="65" rx="10" ry="8" fill="black"/>
  <circle cx="45" cy="70" r="8" fill="black"/>
  
  <!-- Head -->
  <circle cx="80" cy="45" r="16" fill="white"/>
  
  <!-- Eyes -->
  <circle cx="85" cy="42" r="3" fill="black"/>
  <circle cx="78" cy="42" r="3" fill="black"/>
  
  <!-- Nose -->
  <ellipse cx="82" cy="52" rx="8" ry="5" fill="#FFCCBC"/>
  <circle cx="79" cy="51" r="2" fill="#5D4037"/>
  <circle cx="85" cy="51" r="2" fill="#5D4037"/>
  
  <!-- Ears -->
  <path d="M68 32 Q72 22 78 32" fill="white" stroke="#DDD" stroke-width="2"/>
  <path d="M82 32 Q86 22 92 32" fill="white" stroke="#DDD" stroke-width="2"/>
  
  <!-- Horns -->
  <path d="M70 30 Q68 20 72 25" stroke="#8D6E63" stroke-width="3" fill="none"/>
  <path d="M90 30 Q92 20 88 25" stroke="#8D6E63" stroke-width="3" fill="none"/>
  
  <!-- Legs -->
  <rect x="30" y="82" width="8" height="15" fill="white"/>
  <rect x="45" y="82" width="8" height="15" fill="white"/>
  <rect x="55" y="82" width="8" height="15" fill="white"/>
  <rect x="65" y="82" width="8" height="15" fill="white"/>
  
  <!-- Tail -->
  <path d="M15 55 Q5 50 10 60 Q3 58 8 65" stroke="#8D6E63" stroke-width="4" fill="none"/>
</svg>
