<svg width="100" height="100" viewBox="0 0 100 100" fill="none" xmlns="http://www.w3.org/2000/svg">
  <!-- Body -->
  <ellipse cx="50" cy="60" rx="32" ry="24" fill="#FFCCBC"/>
  
  <!-- Head -->
  <circle cx="78" cy="50" r="18" fill="#FFCCBC"/>
  
  <!-- Snout -->
  <ellipse cx="90" cy="55" rx="12" ry="10" fill="#FFB6C1"/>
  <circle cx="87" cy="53" r="3" fill="#8D6E63"/>
  <circle cx="93" cy="53" r="3" fill="#8D6E63"/>
  
  <!-- Eyes -->
  <circle cx="75" cy="45" r="3" fill="black"/>
  <circle cx="82" cy="45" r="3" fill="black"/>
  
  <!-- Ears -->
  <path d="M65 38 Q62 28 68 35" fill="#FFCCBC"/>
  <path d="M85 35 Q88 25 91 32" fill="#FFCCBC"/>
  
  <!-- Legs -->
  <rect x="25" y="80" width="10" height="16" fill="#FFCCBC"/>
  <rect x="40" y="80" width="10" height="16" fill="#FFCCBC"/>
  <rect x="55" y="80" width="10" height="16" fill="#FFCCBC"/>
  <rect x="70" y="80" width="10" height="16" fill="#FFCCBC"/>
  
  <!-- Hooves -->
  <rect x="25" y="93" width="10" height="5" fill="#5D4037"/>
  <rect x="40" y="93" width="10" height="5" fill="#5D4037"/>
  <rect x="55" y="93" width="10" height="5" fill="#5D4037"/>
  <rect x="70" y="93" width="10" height="5" fill="#5D4037"/>
  
  <!-- Tail -->
  <path d="M18 55 Q8 50 12 60 Q5 58 10 65" stroke="#FFCCBC" stroke-width="6" fill="none"/>
  <circle cx="8" cy="65" r="5" fill="#FFB6C1"/>
</svg>
