<svg width="100" height="100" viewBox="0 0 100 100" fill="none" xmlns="http://www.w3.org/2000/svg">
  <!-- Body (fluffy) -->
  <ellipse cx="50" cy="60" rx="35" ry="25" fill="#F5F5F5"/>
  <circle cx="30" cy="55" r="12" fill="#EEEEEE"/>
  <circle cx="45" cy="48" r="10" fill="#EEEEEE"/>
  <circle cx="55" cy="48" r="10" fill="#EEEEEE"/>
  <circle cx="70" cy="55" r="12" fill="#EEEEEE"/>
  <circle cx="35" cy="70" r="11" fill="#EEEEEE"/>
  <circle cx="65" cy="70" r="11" fill="#EEEEEE"/>
  
  <!-- Head -->
  <circle cx="80" cy="45" r="14" fill="#F5F5F5"/>
  <circle cx="78" cy="38" r="8" fill="#EEEEEE"/>
  <circle cx="85" cy="40" r="6" fill="#EEEEEE"/>
  
  <!-- Eyes -->
  <circle cx="78" cy="43" r="3" fill="black"/>
  <circle cx="85" cy="43" r="3" fill="black"/>
  
  <!-- Nose -->
  <ellipse cx="82" cy="50" rx="4" ry="3" fill="#5D4037"/>
  
  <!-- Ears -->
  <path d="M72 32 Q70 22 76 30" fill="#F5F5F5"/>
  <path d="M88 30 Q90 20 93 28" fill="#F5F5F5"/>
  
  <!-- Legs -->
  <rect x="30" y="82" width="8" height="14" fill="#5D4037"/>
  <rect x="45" y="82" width="8" height="14" fill="#5D4037"/>
  <rect x="55" y="82" width="8" height="14" fill="#5D4037"/>
  <rect x="68" y="82" width="8" height="14" fill="#5D4037"/>
</svg>
