<svg width="400" height="300" viewBox="0 0 400 300" fill="none" xmlns="http://www.w3.org/2000/svg">
  <rect width="400" height="300" fill="#FFF8E1"/>
  
  <!-- Table -->
  <rect x="80" y="160" width="240" height="20" fill="#8D6E63"/>
  <rect x="90" y="180" width="15" height="80" fill="#8D6E63"/>
  <rect x="295" y="180" width="15" height="80" fill="#8D6E63"/>
  
  <!-- Books and Materials -->
  <rect x="120" y="145" width="30" height="15" fill="#42A5F5"/>
  <rect x="160" y="148" width="25" height="12" fill="#EC407A"/>
  <rect x="200" y="146" width="28" height="14" fill="#FFA726"/>
  <rect x="240" y="147" width="26" height="13" fill="#66BB6A"/>
  
  <!-- Children -->
  <g transform="translate(130, 120)">
    <circle cx="0" cy="0" r="16" fill="#FFCCBC"/>
    <rect x="-11" y="16" width="22" height="30" fill="#FF7043"/>
    <circle cx="-4" cy="-2" r="2.5" fill="#5D4037"/>
    <circle cx="4" cy="-2" r="2.5" fill="#5D4037"/>
    <path d="M-20 -10 Q0 -22 20 -10" fill="#5D4037"/>
    <!-- Arm holding pencil -->
    <line x1="11" y1="25" x2="25" y2="40" stroke="#FFCCBC" stroke-width="8"/>
    <line x1="22" y1="36" x2="30" y2="50" stroke="#FFD700" stroke-width="4"/>
  </g>
  
  <g transform="translate(200, 118)">
    <circle cx="0" cy="0" r="17" fill="#FFCCBC"/>
    <rect x="-12" y="17" width="24" height="32" fill="#AB47BC"/>
    <circle cx="-5" cy="-3" r="3" fill="#5D4037"/>
    <circle cx="5" cy="-3" r="3" fill="#5D4037"/>
    <path d="M-5 6 Q0 9 5 6" stroke="#5D4037" stroke-width="2" fill="none"/>
    <path d="M-22 -12 Q0 -26 22 -12" fill="#FFD700"/>
  </g>
  
  <g transform="translate(270, 122)">
    <circle cx="0" cy="0" r="15" fill="#FFCCBC"/>
    <rect x="-10" y="15" width="20" height="28" fill="#26A69A"/>
    <circle cx="-4" cy="-2" r="2" fill="#5D4037"/>
    <circle cx="4" cy="-2" r="2" fill="#5D4037"/>
    <path d="M-18 -8 Q0 -18 18 -8" fill="#8D6E63"/>
  </g>
  
  <!-- ABC on board -->
  <rect x="150" y="30" width="100" height="60" fill="#4CAF50"/>
  <text x="200" y="70" font-family="Arial" font-size="28" font-weight="bold" fill="white" text-anchor="middle">
    ABC
  </text>
  
  <!-- Text -->
  <rect x="100" y="240" width="200" height="40" rx="8" fill="white" opacity="0.9"/>
  <text x="200" y="267" font-family="Arial" font-size="18" font-weight="bold" fill="#4A3F35" text-anchor="middle">
    Early Learning Class
  </text>
</svg>
