<svg width="400" height="300" viewBox="0 0 400 300" fill="none" xmlns="http://www.w3.org/2000/svg">
  <rect width="400" height="300" fill="#E3F2FD"/>
  
  <!-- Ground -->
  <rect x="0" y="240" width="400" height="60" fill="#90EE90"/>
  
  <!-- Tree -->
  <rect x="50" y="160" width="20" height="80" fill="#8D6E63"/>
  <circle cx="60" cy="140" r="45" fill="#4CAF50"/>
  <circle cx="40" cy="155" r="35" fill="#66BB6A"/>
  <circle cx="80" cy="155" r="35" fill="#66BB6A"/>
  
  <!-- Children Walking -->
  <g transform="translate(150, 190)">
    <circle cx="0" cy="0" r="18" fill="#FFCCBC"/>
    <rect x="-12" y="18" width="24" height="35" fill="#EC407A"/>
    <rect x="-14" y="53" width="11" height="22" fill="#5D4037"/>
    <rect x="3" y="53" width="11" height="22" fill="#5D4037"/>
    <circle cx="-5" cy="-3" r="3" fill="#5D4037"/>
    <circle cx="5" cy="-3" r="3" fill="#5D4037"/>
    <path d="M-5 6 Q0 9 5 6" stroke="#5D4037" stroke-width="2" fill="none"/>
  </g>
  
  <g transform="translate(200, 195)">
    <circle cx="0" cy="0" r="16" fill="#FFCCBC"/>
    <rect x="-11" y="16" width="22" height="32" fill="#66BB6A"/>
    <rect x="-13" y="48" width="10" height="20" fill="#5D4037"/>
    <rect x="3" y="48" width="10" height="20" fill="#5D4037"/>
    <circle cx="-4" cy="-3" r="2.5" fill="#5D4037"/>
    <circle cx="4" cy="-3" r="2.5" fill="#5D4037"/>
  </g>
  
  <g transform="translate(250, 192)">
    <circle cx="0" cy="0" r="17" fill="#FFCCBC"/>
    <rect x="-12" y="17" width="24" height="34" fill="#FFA726"/>
    <rect x="-14" y="51" width="11" height="21" fill="#5D4037"/>
    <rect x="3" y="51" width="11" height="21" fill="#5D4037"/>
  </g>
  
  <!-- Adult Guide -->
  <g transform="translate(310, 170)">
    <circle cx="0" cy="0" r="22" fill="#FFCCBC"/>
    <rect x="-16" y="22" width="32" height="50" fill="#1976D2"/>
    <rect x="-18" y="72" width="14" height="28" fill="#5D4037"/>
    <rect x="4" y="72" width="14" height="28" fill="#5D4037"/>
  </g>
  
  <!-- Text -->
  <rect x="100" y="20" width="200" height="40" rx="8" fill="white" opacity="0.9"/>
  <text x="200" y="47" font-family="Arial" font-size="18" font-weight="bold" fill="#4A3F35" text-anchor="middle">
    Nature Walk
  </text>
</svg>
