<svg width="600" height="400" viewBox="0 0 600 400" fill="none" xmlns="http://www.w3.org/2000/svg">
  <!-- Sky Background -->
  <rect width="600" height="400" fill="#87CEEB"/>
  
  <!-- Sun -->
  <circle cx="500" cy="80" r="50" fill="#FFD700"/>
  <g stroke="#FFD700" stroke-width="4" opacity="0.7">
    <line x1="500" y1="10" x2="500" y2="0"/>
    <line x1="500" y1="150" x2="500" y2="160"/>
    <line x1="430" y1="80" x2="420" y2="80"/>
    <line x1="570" y1="80" x2="580" y2="80"/>
  </g>
  
  <!-- Clouds -->
  <g opacity="0.9">
    <ellipse cx="100" cy="60" rx="60" ry="30" fill="white"/>
    <ellipse cx="140" cy="50" rx="50" ry="25" fill="white"/>
    <ellipse cx="80" cy="50" rx="40" ry="20" fill="white"/>
  </g>
  <g opacity="0.8">
    <ellipse cx="350" cy="100" rx="70" ry="35" fill="white"/>
    <ellipse cx="400" cy="90" rx="55" ry="28" fill="white"/>
  </g>
  
  <!-- Distant Hills -->
  <path d="M0 280 Q150 240 300 280 Q450 240 600 280 L600 400 L0 400 Z" fill="#81C784"/>
  
  <!-- Main Grass -->
  <path d="M0 300 Q150 280 300 300 Q450 280 600 300 L600 400 L0 400 Z" fill="#90EE90"/>
  
  <!-- Barn -->
  <path d="M350 220 L420 170 L490 220 L490 320 L350 320 Z" fill="#D32F2F"/>
  <path d="M350 220 L420 170 L490 220" stroke="#B71C1C" stroke-width="6" fill="none"/>
  <rect x="395" y="270" width="50" height="50" fill="#8D6E63"/>
  <circle cx="420" cy="295" r="5" fill="#FFD700"/>
  <path d="M350 220 L420 170 L490 220 L450 220 L420 190 L390 220 Z" fill="#B71C1C" opacity="0.5"/>
  
  <!-- Fence -->
  <g stroke="#8D6E63" stroke-width="3">
    <line x1="80" y1="330" x2="320" y2="330"/>
    <line x1="80" y1="340" x2="320" y2="340"/>
  </g>
  <g fill="#8D6E63">
    <rect x="80" y="315" width="8" height="35"/>
    <rect x="130" y="315" width="8" height="35"/>
    <rect x="180" y="315" width="8" height="35"/>
    <rect x="230" y="315" width="8" height="35"/>
    <rect x="280" y="315" width="8" height="35"/>
  </g>
  
  <!-- Trees -->
  <rect x="100" y="260" width="15" height="60" fill="#8D6E63"/>
  <circle cx="107" cy="240" r="35" fill="#4CAF50"/>
  <circle cx="90" cy="250" r="25" fill="#66BB6A"/>
  <circle cx="125" cy="250" r="25" fill="#66BB6A"/>
  
  <rect x="520" y="250" width="12" height="70" fill="#8D6E63"/>
  <circle cx="526" cy="230" r="30" fill="#4CAF50"/>
  
  <!-- Chickens -->
  <g transform="translate(200, 310)">
    <ellipse cx="0" cy="0" rx="15" ry="12" fill="#FF9800"/>
    <circle cx="-10" cy="-8" r="8" fill="#FF9800"/>
    <polygon points="-15,-8 -20,-6 -15,-4" fill="#FFD700"/>
    <circle cx="-12" cy="-9" r="2" fill="black"/>
    <path d="M-8 -16 Q-10 -20 -12 -16" stroke="#D32F2F" stroke-width="3" fill="none"/>
  </g>
  
  <g transform="translate(230, 315)">
    <ellipse cx="0" cy="0" rx="12" ry="10" fill="#FFA726"/>
    <circle cx="-8" cy="-6" r="7" fill="#FFA726"/>
    <polygon points="-12,-6 -16,-4 -12,-2" fill="#FFD700"/>
    <circle cx="-10" cy="-7" r="1.5" fill="black"/>
  </g>
  
  <!-- Cow -->
  <g transform="translate(450, 330)">
    <ellipse cx="0" cy="0" rx="30" ry="20" fill="white"/>
    <circle cx="-25" cy="-10" r="15" fill="white"/>
    <ellipse cx="-28" cy="-12" rx="4" ry="3" fill="black"/>
    <ellipse cx="-22" cy="-12" rx="4" ry="3" fill="black"/>
    <ellipse cx="-25" cy="-5" rx="6" ry="4" fill="#FFCCBC"/>
    <path d="M-35 -22 Q-32 -28 -30 -22" stroke="#8D6E63" stroke-width="2" fill="none"/>
    <path d="M-20 -22 Q-18 -28 -15 -22" stroke="#8D6E63" stroke-width="2" fill="none"/>
    <ellipse cx="5" cy="5" rx="12" ry="8" fill="black"/>
    <ellipse cx="-10" cy="8" rx="10" ry="6" fill="black"/>
  </g>
  
  <!-- Children Playing (simplified) -->
  <g transform="translate(160, 280)">
    <!-- Child 1 -->
    <circle cx="0" cy="0" r="12" fill="#FFCCBC"/>
    <rect x="-8" y="12" width="16" height="25" fill="#42A5F5"/>
    <rect x="-10" y="37" width="8" height="15" fill="#5D4037"/>
    <rect x="2" y="37" width="8" height="15" fill="#5D4037"/>
    <circle cx="-3" cy="-2" r="2" fill="#5D4037"/>
    <circle cx="3" cy="-2" r="2" fill="#5D4037"/>
    <path d="M-4 5 Q0 8 4 5" stroke="#5D4037" stroke-width="2" fill="none"/>
    <path d="M-10 -10 Q0 -18 10 -10" fill="#8D6E63"/>
  </g>
  
  <g transform="translate(190, 285)">
    <!-- Child 2 -->
    <circle cx="0" cy="0" r="10" fill="#FFCCBC"/>
    <rect x="-7" y="10" width="14" height="22" fill="#EC407A"/>
    <rect x="-8" y="32" width="7" height="13" fill="#5D4037"/>
    <rect x="1" y="32" width="7" height="13" fill="#5D4037"/>
    <circle cx="-2" cy="-2" r="1.5" fill="#5D4037"/>
    <circle cx="2" cy="-2" r="1.5" fill="#5D4037"/>
    <path d="M-3 3 Q0 5 3 3" stroke="#5D4037" stroke-width="1.5" fill="none"/>
    <path d="M-12 -5 Q0 -15 12 -5" fill="#FFD700"/>
  </g>
  
  <!-- Placeholder Text -->
  <rect x="150" y="120" width="300" height="60" rx="10" fill="white" opacity="0.9"/>
  <text x="300" y="145" font-family="Arial" font-size="20" font-weight="bold" fill="#4A3F35" text-anchor="middle">
    Children at the Farm
  </text>
  <text x="300" y="168" font-family="Arial" font-size="14" fill="#7D6B5D" text-anchor="middle">
    Replace with actual photo
  </text>
</svg>
