<svg width="200" height="200" viewBox="0 0 200 200" fill="none" xmlns="http://www.w3.org/2000/svg">
  <!-- Background Circle -->
  <circle cx="100" cy="100" r="95" fill="#FFF8E1"/>
  <circle cx="100" cy="100" r="90" fill="#FFD700" opacity="0.3"/>
  
  <!-- Barn -->
  <path d="M50 130 L100 90 L150 130 L150 170 L50 170 Z" fill="#D32F2F"/>
  <path d="M50 130 L100 90 L150 130" stroke="#B71C1C" stroke-width="4" fill="none"/>
  <rect x="85" y="140" width="30" height="30" fill="#8D6E63"/>
  <circle cx="100" cy="155" r="3" fill="#FFD700"/>
  
  <!-- Sun -->
  <circle cx="145" cy="55" r="20" fill="#FFD700"/>
  <g stroke="#FFD700" stroke-width="3">
    <line x1="145" y1="25" x2="145" y2="15"/>
    <line x1="145" y1="85" x2="145" y2="95"/>
    <line x1="115" y1="55" x2="105" y2="55"/>
    <line x1="175" y1="55" x2="185" y2="55"/>
    <line x1="124" y1="34" x2="117" y2="27"/>
    <line x1="166" y1="76" x2="173" y2="83"/>
    <line x1="124" y1="76" x2="117" y2="83"/>
    <line x1="166" y1="34" x2="173" y2="27"/>
  </g>
  
  <!-- Grass -->
  <path d="M30 170 Q100 165 170 170 L170 185 L30 185 Z" fill="#90EE90"/>
  
  <!-- Tree -->
  <rect x="55" y="140" width="8" height="30" fill="#8D6E63"/>
  <circle cx="59" cy="130" r="15" fill="#4CAF50"/>
  <circle cx="52" cy="135" r="12" fill="#66BB6A"/>
  <circle cx="66" cy="135" r="12" fill="#66BB6A"/>
  
  <!-- Text Arc -->
  <path id="textPath" d="M 40 100 A 60 60 0 0 1 160 100" fill="none"/>
  <text font-family="Arial" font-size="11" font-weight="bold" fill="#4A3F35">
    <textPath href="#textPath" startOffset="50%" text-anchor="middle">
      EXOTIC FARM KIDZ
    </textPath>
  </text>
  
  <!-- Bottom Text -->
  <text x="100" y="195" font-family="Arial" font-size="10" font-weight="bold" fill="#4A3F35" text-anchor="middle">
    ACADEMY
  </text>
</svg>
